<?xml version="1.0" encoding="UTF-8"?>
<!DOCTYPE svg PUBLIC "-//W3C//DTD SVG 1.1//EN" "http://www.w3.org/Graphics/SVG/1.1/DTD/svg11.dtd">
<svg xmlns="http://www.w3.org/2000/svg" version="1.1" width="1920px" height="1080px" style="shape-rendering:geometricPrecision; text-rendering:geometricPrecision; image-rendering:optimizeQuality; fill-rule:evenodd; clip-rule:evenodd" xmlns:xlink="http://www.w3.org/1999/xlink">
<g><path style="opacity:0.998" fill="#f7931a" d="M 919.5,25.5 C 1083.56,16.2158 1222.72,69.8824 1337,186.5C 1448.52,310.419 1492.85,455.419 1470,621.5C 1445.88,759.333 1378.38,870.166 1267.5,954C 1136.47,1046.8 992.473,1075.14 835.5,1039C 683.956,997.761 572.122,907.594 500,768.5C 440.654,644.762 430.654,517.095 470,385.5C 514.689,250.493 599.522,149.327 724.5,82C 785.985,50.6675 850.985,31.8342 919.5,25.5 Z"/></g>
<g><path style="opacity:1" fill="#fffefe" d="M 939.5,204.5 C 958.759,208.731 977.759,213.731 996.5,219.5C 988.933,248.6 981.6,277.767 974.5,307C 974.755,308.326 975.422,309.326 976.5,310C 990.808,313.361 1005.14,316.528 1019.5,319.5C 1026.55,289.317 1034.21,259.317 1042.5,229.5C 1060.72,234.638 1079.05,239.305 1097.5,243.5C 1090.48,274.57 1083.32,305.57 1076,336.5C 1105.38,346.104 1132.21,360.271 1156.5,379C 1190.84,411.666 1199,450.166 1181,494.5C 1169.39,523.733 1148.22,541.9 1117.5,549C 1134.37,557.866 1148.87,569.699 1161,584.5C 1176.09,606.281 1181.09,630.281 1176,656.5C 1159.54,740.021 1108.71,777.855 1023.5,770C 1005.09,767.973 986.755,765.473 968.5,762.5C 960.692,793.397 953.359,824.397 946.5,855.5C 927.468,851.325 908.468,846.992 889.5,842.5C 896.833,811.167 904.167,779.833 911.5,748.5C 896.456,745.322 881.456,741.989 866.5,738.5C 859.481,769.242 852.148,799.909 844.5,830.5C 825.277,826.278 806.277,821.278 787.5,815.5C 795.324,785.205 802.99,754.872 810.5,724.5C 810.167,723.833 809.833,723.167 809.5,722.5C 772.152,712.831 734.818,703.165 697.5,693.5C 706.704,672.259 716.038,651.093 725.5,630C 741.275,634.108 757.275,637.608 773.5,640.5C 782.657,639.849 788.824,635.183 792,626.5C 813.159,542.199 834.159,457.866 855,373.5C 856.867,358.734 851.033,348.234 837.5,342C 821.356,337.047 805.022,332.881 788.5,329.5C 793.167,309.5 797.833,289.5 802.5,269.5C 840.812,278.662 879.145,287.662 917.5,296.5C 924.834,265.832 932.167,235.165 939.5,204.5 Z"/></g>
<g><path style="opacity:1" fill="#f7931b" d="M 958.5,376.5 C 981.272,380.61 1003.61,386.443 1025.5,394C 1041.76,400.04 1055.93,409.207 1068,421.5C 1081.29,440.933 1081.96,460.933 1070,481.5C 1061.17,493.339 1049.33,500.173 1034.5,502C 1016.8,504.088 999.133,503.755 981.5,501C 964.784,497.357 948.117,493.524 931.5,489.5C 939.709,451.663 948.709,413.996 958.5,376.5 Z"/></g>
<g><path style="opacity:1" fill="#f7931b" d="M 916.5,545.5 C 942.514,550.921 968.181,557.754 993.5,566C 1011.51,572.165 1027.84,581.165 1042.5,593C 1065.76,616.852 1067.59,642.352 1048,669.5C 1039.16,678.006 1028.66,683.506 1016.5,686C 992.061,689.687 967.727,689.02 943.5,684C 924.296,680.116 905.296,675.449 886.5,670C 886.043,669.586 885.709,669.086 885.5,668.5C 895.99,627.539 906.324,586.539 916.5,545.5 Z"/></g>
</svg>
